<?xml version="1.0" encoding="UTF-8" standalone="no"?>
<!DOCTYPE svg PUBLIC "-//W3C//DTD SVG 1.1//EN"
 "http://www.w3.org/Graphics/SVG/1.1/DTD/svg11.dtd">
<!-- Generated by graphviz version 2.40.1 (20161225.0304)
 -->
<!-- Title: dependencies Pages: 1 -->
<svg width="504pt" height="211pt"
 viewBox="0.00 0.00 504.00 211.00" xmlns="http://www.w3.org/2000/svg" xmlns:xlink="http://www.w3.org/1999/xlink">
<g id="graph0" class="graph" transform="scale(1 1) rotate(0) translate(4 207)">
<title>dependencies</title>
<polygon fill="#ffffff" stroke="transparent" points="-4,4 -4,-207 500,-207 500,4 -4,4"/>
<text text-anchor="start" x="227.0091" y="-42.4" font-family="sans-serif" font-weight="bold" font-size="14.00" fill="#000000">Legend</text>
<polygon fill="#ffffb3" stroke="transparent" points="14,-10 14,-30 34,-30 34,-10 14,-10"/>
<text text-anchor="start" x="37.629" y="-15.4" font-family="sans-serif" font-size="14.00" fill="#000000"> &#160;Declarations</text>
<polygon fill="#8dd3c7" stroke="transparent" points="127,-10 127,-30 147,-30 147,-10 127,-10"/>
<text text-anchor="start" x="150.7251" y="-15.4" font-family="sans-serif" font-size="14.00" fill="#000000"> &#160;Module</text>
<polygon fill="#80b1d3" stroke="transparent" points="213,-10 213,-30 233,-30 233,-10 213,-10"/>
<text text-anchor="start" x="236.7812" y="-15.4" font-family="sans-serif" font-size="14.00" fill="#000000"> &#160;Bootstrap</text>
<polygon fill="#fdb462" stroke="transparent" points="310,-10 310,-30 330,-30 330,-10 310,-10"/>
<text text-anchor="start" x="333.6732" y="-15.4" font-family="sans-serif" font-size="14.00" fill="#000000"> &#160;Providers</text>
<polygon fill="#fb8072" stroke="transparent" points="406,-10 406,-30 426,-30 426,-10 406,-10"/>
<text text-anchor="start" x="429.7258" y="-15.4" font-family="sans-serif" font-size="14.00" fill="#000000"> &#160;Exports</text>
<g id="clust1" class="cluster">
<title>cluster_UserModule</title>
<polygon fill="none" stroke="#000000" stroke-dasharray="1,5" points="16,-70 16,-195 480,-195 480,-70 16,-70"/>
</g>
<g id="clust2" class="cluster">
<title>cluster_UserModule_declarations</title>
<polygon fill="none" stroke="#000000" points="180,-78 180,-130 472,-130 472,-78 180,-78"/>
</g>
<g id="clust5" class="cluster">
<title>cluster_UserModule_imports</title>
<polygon fill="none" stroke="#000000" points="24,-78 24,-130 172,-130 172,-78 24,-78"/>
</g>
<!-- MyProductsComponent -->
<g id="node1" class="node">
<title>MyProductsComponent</title>
<polygon fill="#ffffb3" stroke="#000000" points="463.7702,-122 314.2298,-122 314.2298,-86 463.7702,-86 463.7702,-122"/>
<text text-anchor="middle" x="389" y="-99.8" font-family="Times,serif" font-size="14.00" fill="#000000">MyProductsComponent</text>
</g>
<!-- UserModule -->
<g id="node3" class="node">
<title>UserModule</title>
<polygon fill="#8dd3c7" stroke="#000000" points="284.9762,-187 281.9762,-191 260.9762,-191 257.9762,-187 199.0238,-187 199.0238,-151 284.9762,-151 284.9762,-187"/>
<text text-anchor="middle" x="242" y="-164.8" font-family="Times,serif" font-size="14.00" fill="#000000">UserModule</text>
</g>
<!-- MyProductsComponent&#45;&gt;UserModule -->
<g id="edge1" class="edge">
<title>MyProductsComponent&#45;&gt;UserModule</title>
<path fill="none" stroke="#000000" d="M389,-122.1061C389,-141.3391 389,-169 389,-169 389,-169 295.3098,-169 295.3098,-169"/>
<polygon fill="#000000" stroke="#000000" points="295.3098,-165.5001 285.3098,-169 295.3097,-172.5001 295.3098,-165.5001"/>
</g>
<!-- UserComponent -->
<g id="node2" class="node">
<title>UserComponent</title>
<polygon fill="#ffffb3" stroke="#000000" points="295.7591,-122 188.2409,-122 188.2409,-86 295.7591,-86 295.7591,-122"/>
<text text-anchor="middle" x="242" y="-99.8" font-family="Times,serif" font-size="14.00" fill="#000000">UserComponent</text>
</g>
<!-- UserComponent&#45;&gt;UserModule -->
<g id="edge2" class="edge">
<title>UserComponent&#45;&gt;UserModule</title>
<path fill="none" stroke="#000000" d="M242,-122.1061C242,-122.1061 242,-140.991 242,-140.991"/>
<polygon fill="#000000" stroke="#000000" points="238.5001,-140.9909 242,-150.991 245.5001,-140.991 238.5001,-140.9909"/>
</g>
<!-- UserRoutingModule -->
<g id="node4" class="node">
<title>UserRoutingModule</title>
<polygon fill="#8dd3c7" stroke="#000000" points="163.594,-122 160.594,-126 139.594,-126 136.594,-122 32.406,-122 32.406,-86 163.594,-86 163.594,-122"/>
<text text-anchor="middle" x="98" y="-99.8" font-family="Times,serif" font-size="14.00" fill="#000000">UserRoutingModule</text>
</g>
<!-- UserRoutingModule&#45;&gt;UserModule -->
<g id="edge3" class="edge">
<title>UserRoutingModule&#45;&gt;UserModule</title>
<path fill="none" stroke="#000000" d="M98,-122.1061C98,-141.3391 98,-169 98,-169 98,-169 188.7953,-169 188.7953,-169"/>
<polygon fill="#000000" stroke="#000000" points="188.7953,-172.5001 198.7953,-169 188.7952,-165.5001 188.7953,-172.5001"/>
</g>
</g>
</svg>
