<?xml version="1.0" encoding="UTF-8" standalone="no"?>
<!DOCTYPE svg PUBLIC "-//W3C//DTD SVG 1.1//EN"
 "http://www.w3.org/Graphics/SVG/1.1/DTD/svg11.dtd">
<!-- Generated by graphviz version 2.40.1 (20161225.0304)
 -->
<!-- Title: dependencies Pages: 1 -->
<svg width="1402pt" height="211pt"
 viewBox="0.00 0.00 1402.00 211.00" xmlns="http://www.w3.org/2000/svg" xmlns:xlink="http://www.w3.org/1999/xlink">
<g id="graph0" class="graph" transform="scale(1 1) rotate(0) translate(4 207)">
<title>dependencies</title>
<polygon fill="#ffffff" stroke="transparent" points="-4,4 -4,-207 1398,-207 1398,4 -4,4"/>
<text text-anchor="start" x="676.0091" y="-42.4" font-family="sans-serif" font-weight="bold" font-size="14.00" fill="#000000">Legend</text>
<polygon fill="#ffffb3" stroke="transparent" points="463,-10 463,-30 483,-30 483,-10 463,-10"/>
<text text-anchor="start" x="486.629" y="-15.4" font-family="sans-serif" font-size="14.00" fill="#000000"> &#160;Declarations</text>
<polygon fill="#8dd3c7" stroke="transparent" points="576,-10 576,-30 596,-30 596,-10 576,-10"/>
<text text-anchor="start" x="599.7251" y="-15.4" font-family="sans-serif" font-size="14.00" fill="#000000"> &#160;Module</text>
<polygon fill="#80b1d3" stroke="transparent" points="662,-10 662,-30 682,-30 682,-10 662,-10"/>
<text text-anchor="start" x="685.7812" y="-15.4" font-family="sans-serif" font-size="14.00" fill="#000000"> &#160;Bootstrap</text>
<polygon fill="#fdb462" stroke="transparent" points="759,-10 759,-30 779,-30 779,-10 759,-10"/>
<text text-anchor="start" x="782.6732" y="-15.4" font-family="sans-serif" font-size="14.00" fill="#000000"> &#160;Providers</text>
<polygon fill="#fb8072" stroke="transparent" points="855,-10 855,-30 875,-30 875,-10 855,-10"/>
<text text-anchor="start" x="878.7258" y="-15.4" font-family="sans-serif" font-size="14.00" fill="#000000"> &#160;Exports</text>
<g id="clust1" class="cluster">
<title>cluster_AdminModule</title>
<polygon fill="none" stroke="#000000" stroke-dasharray="1,5" points="8,-70 8,-195 1386,-195 1386,-70 8,-70"/>
</g>
<g id="clust2" class="cluster">
<title>cluster_AdminModule_declarations</title>
<polygon fill="none" stroke="#000000" points="184,-78 184,-130 1378,-130 1378,-78 184,-78"/>
</g>
<g id="clust10" class="cluster">
<title>cluster_AdminModule_imports</title>
<polygon fill="none" stroke="#000000" points="16,-78 16,-130 176,-130 176,-78 16,-78"/>
</g>
<!-- AddProductComponent -->
<g id="node1" class="node">
<title>AddProductComponent</title>
<polygon fill="#ffffb3" stroke="#000000" points="1370.4874,-122 1221.5126,-122 1221.5126,-86 1370.4874,-86 1370.4874,-122"/>
<text text-anchor="middle" x="1296" y="-99.8" font-family="Times,serif" font-size="14.00" fill="#000000">AddProductComponent</text>
</g>
<!-- AdminModule -->
<g id="node8" class="node">
<title>AdminModule</title>
<polygon fill="#8dd3c7" stroke="#000000" points="772.4386,-187 769.4386,-191 748.4386,-191 745.4386,-187 673.5614,-187 673.5614,-151 772.4386,-151 772.4386,-187"/>
<text text-anchor="middle" x="723" y="-164.8" font-family="Times,serif" font-size="14.00" fill="#000000">AdminModule</text>
</g>
<!-- AddProductComponent&#45;&gt;AdminModule -->
<g id="edge1" class="edge">
<title>AddProductComponent&#45;&gt;AdminModule</title>
<path fill="none" stroke="#000000" d="M1296,-122.2921C1296,-144.2057 1296,-178 1296,-178 1296,-178 782.3496,-178 782.3496,-178"/>
<polygon fill="#000000" stroke="#000000" points="782.3496,-174.5001 772.3496,-178 782.3496,-181.5001 782.3496,-174.5001"/>
</g>
<!-- AdminComponent -->
<g id="node2" class="node">
<title>AdminComponent</title>
<polygon fill="#ffffb3" stroke="#000000" points="1203.2204,-122 1082.7796,-122 1082.7796,-86 1203.2204,-86 1203.2204,-122"/>
<text text-anchor="middle" x="1143" y="-99.8" font-family="Times,serif" font-size="14.00" fill="#000000">AdminComponent</text>
</g>
<!-- AdminComponent&#45;&gt;AdminModule -->
<g id="edge2" class="edge">
<title>AdminComponent&#45;&gt;AdminModule</title>
<path fill="none" stroke="#000000" d="M1143,-122.1061C1143,-141.3391 1143,-169 1143,-169 1143,-169 782.4144,-169 782.4144,-169"/>
<polygon fill="#000000" stroke="#000000" points="782.4144,-165.5001 772.4144,-169 782.4144,-172.5001 782.4144,-165.5001"/>
</g>
<!-- AdminHomeComponent -->
<g id="node3" class="node">
<title>AdminHomeComponent</title>
<polygon fill="#ffffb3" stroke="#000000" points="1065.4326,-122 910.5674,-122 910.5674,-86 1065.4326,-86 1065.4326,-122"/>
<text text-anchor="middle" x="988" y="-99.8" font-family="Times,serif" font-size="14.00" fill="#000000">AdminHomeComponent</text>
</g>
<!-- AdminHomeComponent&#45;&gt;AdminModule -->
<g id="edge3" class="edge">
<title>AdminHomeComponent&#45;&gt;AdminModule</title>
<path fill="none" stroke="#000000" d="M988,-122.027C988,-138.3976 988,-160 988,-160 988,-160 782.2234,-160 782.2234,-160"/>
<polygon fill="#000000" stroke="#000000" points="782.2235,-156.5001 772.2234,-160 782.2234,-163.5001 782.2235,-156.5001"/>
</g>
<!-- AdminOrdersComponent -->
<g id="node4" class="node">
<title>AdminOrdersComponent</title>
<polygon fill="#ffffb3" stroke="#000000" points="893.3075,-122 734.6925,-122 734.6925,-86 893.3075,-86 893.3075,-122"/>
<text text-anchor="middle" x="814" y="-99.8" font-family="Times,serif" font-size="14.00" fill="#000000">AdminOrdersComponent</text>
</g>
<!-- AdminOrdersComponent&#45;&gt;AdminModule -->
<g id="edge4" class="edge">
<title>AdminOrdersComponent&#45;&gt;AdminModule</title>
<path fill="none" stroke="#000000" d="M753.5326,-122.1061C753.5326,-122.1061 753.5326,-140.991 753.5326,-140.991"/>
<polygon fill="#000000" stroke="#000000" points="750.0327,-140.9909 753.5326,-150.991 757.0327,-140.991 750.0327,-140.9909"/>
</g>
<!-- AdminProductsComponent -->
<g id="node5" class="node">
<title>AdminProductsComponent</title>
<polygon fill="#ffffb3" stroke="#000000" points="716.7133,-122 547.2867,-122 547.2867,-86 716.7133,-86 716.7133,-122"/>
<text text-anchor="middle" x="632" y="-99.8" font-family="Times,serif" font-size="14.00" fill="#000000">AdminProductsComponent</text>
</g>
<!-- AdminProductsComponent&#45;&gt;AdminModule -->
<g id="edge5" class="edge">
<title>AdminProductsComponent&#45;&gt;AdminModule</title>
<path fill="none" stroke="#000000" d="M695.1939,-122.1061C695.1939,-122.1061 695.1939,-140.991 695.1939,-140.991"/>
<polygon fill="#000000" stroke="#000000" points="691.694,-140.9909 695.1939,-150.991 698.694,-140.991 691.694,-140.9909"/>
</g>
<!-- AdminServicesComponent -->
<g id="node6" class="node">
<title>AdminServicesComponent</title>
<polygon fill="#ffffb3" stroke="#000000" points="529.6428,-122 362.3572,-122 362.3572,-86 529.6428,-86 529.6428,-122"/>
<text text-anchor="middle" x="446" y="-99.8" font-family="Times,serif" font-size="14.00" fill="#000000">AdminServicesComponent</text>
</g>
<!-- AdminServicesComponent&#45;&gt;AdminModule -->
<g id="edge6" class="edge">
<title>AdminServicesComponent&#45;&gt;AdminModule</title>
<path fill="none" stroke="#000000" d="M446,-122.027C446,-138.3976 446,-160 446,-160 446,-160 663.478,-160 663.478,-160"/>
<polygon fill="#000000" stroke="#000000" points="663.478,-163.5001 673.478,-160 663.4779,-156.5001 663.478,-163.5001"/>
</g>
<!-- AdminUsersComponent -->
<g id="node7" class="node">
<title>AdminUsersComponent</title>
<polygon fill="#ffffb3" stroke="#000000" points="344.0912,-122 191.9088,-122 191.9088,-86 344.0912,-86 344.0912,-122"/>
<text text-anchor="middle" x="268" y="-99.8" font-family="Times,serif" font-size="14.00" fill="#000000">AdminUsersComponent</text>
</g>
<!-- AdminUsersComponent&#45;&gt;AdminModule -->
<g id="edge7" class="edge">
<title>AdminUsersComponent&#45;&gt;AdminModule</title>
<path fill="none" stroke="#000000" d="M268,-122.1061C268,-141.3391 268,-169 268,-169 268,-169 663.4409,-169 663.4409,-169"/>
<polygon fill="#000000" stroke="#000000" points="663.4409,-172.5001 673.4409,-169 663.4408,-165.5001 663.4409,-172.5001"/>
</g>
<!-- AdminRoutingModule -->
<g id="node9" class="node">
<title>AdminRoutingModule</title>
<polygon fill="#8dd3c7" stroke="#000000" points="167.5561,-122 164.5561,-126 143.5561,-126 140.5561,-122 24.4439,-122 24.4439,-86 167.5561,-86 167.5561,-122"/>
<text text-anchor="middle" x="96" y="-99.8" font-family="Times,serif" font-size="14.00" fill="#000000">AdminRoutingModule</text>
</g>
<!-- AdminRoutingModule&#45;&gt;AdminModule -->
<g id="edge8" class="edge">
<title>AdminRoutingModule&#45;&gt;AdminModule</title>
<path fill="none" stroke="#000000" d="M96,-122.2921C96,-144.2057 96,-178 96,-178 96,-178 663.5386,-178 663.5386,-178"/>
<polygon fill="#000000" stroke="#000000" points="663.5386,-181.5001 673.5386,-178 663.5386,-174.5001 663.5386,-181.5001"/>
</g>
</g>
</svg>
