<?xml version="1.0" encoding="UTF-8" standalone="no"?>
<!DOCTYPE svg PUBLIC "-//W3C//DTD SVG 1.1//EN"
 "http://www.w3.org/Graphics/SVG/1.1/DTD/svg11.dtd">
<!-- Generated by graphviz version 2.40.1 (20161225.0304)
 -->
<!-- Title: dependencies Pages: 1 -->
<svg width="2391pt" height="284pt"
 viewBox="0.00 0.00 2391.00 284.00" xmlns="http://www.w3.org/2000/svg" xmlns:xlink="http://www.w3.org/1999/xlink">
<g id="graph0" class="graph" transform="scale(1 1) rotate(0) translate(4 280)">
<title>dependencies</title>
<polygon fill="#ffffff" stroke="transparent" points="-4,4 -4,-280 2387,-280 2387,4 -4,4"/>
<text text-anchor="start" x="1170.5091" y="-42.4" font-family="sans-serif" font-weight="bold" font-size="14.00" fill="#000000">Legend</text>
<polygon fill="#ffffb3" stroke="transparent" points="957.5,-10 957.5,-30 977.5,-30 977.5,-10 957.5,-10"/>
<text text-anchor="start" x="981.129" y="-15.4" font-family="sans-serif" font-size="14.00" fill="#000000"> &#160;Declarations</text>
<polygon fill="#8dd3c7" stroke="transparent" points="1070.5,-10 1070.5,-30 1090.5,-30 1090.5,-10 1070.5,-10"/>
<text text-anchor="start" x="1094.2251" y="-15.4" font-family="sans-serif" font-size="14.00" fill="#000000"> &#160;Module</text>
<polygon fill="#80b1d3" stroke="transparent" points="1156.5,-10 1156.5,-30 1176.5,-30 1176.5,-10 1156.5,-10"/>
<text text-anchor="start" x="1180.2812" y="-15.4" font-family="sans-serif" font-size="14.00" fill="#000000"> &#160;Bootstrap</text>
<polygon fill="#fdb462" stroke="transparent" points="1253.5,-10 1253.5,-30 1273.5,-30 1273.5,-10 1253.5,-10"/>
<text text-anchor="start" x="1277.1732" y="-15.4" font-family="sans-serif" font-size="14.00" fill="#000000"> &#160;Providers</text>
<polygon fill="#fb8072" stroke="transparent" points="1349.5,-10 1349.5,-30 1369.5,-30 1369.5,-10 1349.5,-10"/>
<text text-anchor="start" x="1373.2258" y="-15.4" font-family="sans-serif" font-size="14.00" fill="#000000"> &#160;Exports</text>
<g id="clust1" class="cluster">
<title>cluster_AppModule</title>
<polygon fill="none" stroke="#000000" stroke-dasharray="1,5" points="8,-70 8,-268 2375,-268 2375,-70 8,-70"/>
</g>
<g id="clust2" class="cluster">
<title>cluster_AppModule_declarations</title>
<polygon fill="none" stroke="#000000" points="1404,-78 1404,-130 2367,-130 2367,-78 1404,-78"/>
</g>
<g id="clust10" class="cluster">
<title>cluster_AppModule_imports</title>
<polygon fill="none" stroke="#000000" points="921,-78 921,-130 1396,-130 1396,-78 921,-78"/>
</g>
<g id="clust12" class="cluster">
<title>cluster_AppModule_bootstrap</title>
<polygon fill="none" stroke="#000000" points="1145,-208 1145,-260 1269,-260 1269,-208 1145,-208"/>
</g>
<g id="clust13" class="cluster">
<title>cluster_AppModule_providers</title>
<polygon fill="none" stroke="#000000" points="16,-78 16,-130 913,-130 913,-78 16,-78"/>
</g>
<!-- AppComponent -->
<g id="node1" class="node">
<title>AppComponent</title>
<polygon fill="#ffffb3" stroke="#000000" points="2358.9399,-122 2253.0601,-122 2253.0601,-86 2358.9399,-86 2358.9399,-122"/>
<text text-anchor="middle" x="2306" y="-99.8" font-family="Times,serif" font-size="14.00" fill="#000000">AppComponent</text>
</g>
<!-- AppModule -->
<g id="node8" class="node">
<title>AppModule</title>
<polygon fill="#8dd3c7" stroke="#000000" points="1248.6571,-187 1245.6571,-191 1224.6571,-191 1221.6571,-187 1165.3429,-187 1165.3429,-151 1248.6571,-151 1248.6571,-187"/>
<text text-anchor="middle" x="1207" y="-164.8" font-family="Times,serif" font-size="14.00" fill="#000000">AppModule</text>
</g>
<!-- AppComponent&#45;&gt;AppModule -->
<g id="edge1" class="edge">
<title>AppComponent&#45;&gt;AppModule</title>
<path fill="none" stroke="#000000" d="M2306,-122.3228C2306,-145.6602 2306,-183 2306,-183 2306,-183 1258.7401,-183 1258.7401,-183"/>
<polygon fill="#000000" stroke="#000000" points="1258.7401,-179.5001 1248.7401,-183 1258.7401,-186.5001 1258.7401,-179.5001"/>
</g>
<!-- FilterPipe -->
<g id="node2" class="node">
<title>FilterPipe</title>
<polygon fill="#ffffb3" stroke="#000000" points="2235.7177,-122 2164.2823,-122 2164.2823,-86 2235.7177,-86 2235.7177,-122"/>
<text text-anchor="middle" x="2200" y="-99.8" font-family="Times,serif" font-size="14.00" fill="#000000">FilterPipe</text>
</g>
<!-- FilterPipe&#45;&gt;AppModule -->
<g id="edge2" class="edge">
<title>FilterPipe&#45;&gt;AppModule</title>
<path fill="none" stroke="#000000" d="M2200,-122.1554C2200,-144.3519 2200,-179 2200,-179 2200,-179 1258.7182,-179 1258.7182,-179"/>
<polygon fill="#000000" stroke="#000000" points="1258.7182,-175.5001 1248.7182,-179 1258.7182,-182.5001 1258.7182,-175.5001"/>
</g>
<!-- IconModalComponent -->
<g id="node3" class="node">
<title>IconModalComponent</title>
<polygon fill="#ffffb3" stroke="#000000" points="2146.2576,-122 2003.7424,-122 2003.7424,-86 2146.2576,-86 2146.2576,-122"/>
<text text-anchor="middle" x="2075" y="-99.8" font-family="Times,serif" font-size="14.00" fill="#000000">IconModalComponent</text>
</g>
<!-- IconModalComponent&#45;&gt;AppModule -->
<g id="edge3" class="edge">
<title>IconModalComponent&#45;&gt;AppModule</title>
<path fill="none" stroke="#000000" d="M2075,-122.2843C2075,-143.3211 2075,-175 2075,-175 2075,-175 1258.8654,-175 1258.8654,-175"/>
<polygon fill="#000000" stroke="#000000" points="1258.8655,-171.5001 1248.8654,-175 1258.8654,-178.5001 1258.8655,-171.5001"/>
</g>
<!-- MenuComponent -->
<g id="node4" class="node">
<title>MenuComponent</title>
<polygon fill="#ffffb3" stroke="#000000" points="1985.9916,-122 1872.0084,-122 1872.0084,-86 1985.9916,-86 1985.9916,-122"/>
<text text-anchor="middle" x="1929" y="-99.8" font-family="Times,serif" font-size="14.00" fill="#000000">MenuComponent</text>
</g>
<!-- MenuComponent&#45;&gt;AppModule -->
<g id="edge4" class="edge">
<title>MenuComponent&#45;&gt;AppModule</title>
<path fill="none" stroke="#000000" d="M1929,-122.308C1929,-142.1455 1929,-171 1929,-171 1929,-171 1258.6744,-171 1258.6744,-171"/>
<polygon fill="#000000" stroke="#000000" points="1258.6745,-167.5001 1248.6744,-171 1258.6744,-174.5001 1258.6745,-167.5001"/>
</g>
<!-- OrderModalComponent -->
<g id="node5" class="node">
<title>OrderModalComponent</title>
<polygon fill="#ffffb3" stroke="#000000" points="1854.0253,-122 1703.9747,-122 1703.9747,-86 1854.0253,-86 1854.0253,-122"/>
<text text-anchor="middle" x="1779" y="-99.8" font-family="Times,serif" font-size="14.00" fill="#000000">OrderModalComponent</text>
</g>
<!-- OrderModalComponent&#45;&gt;AppModule -->
<g id="edge5" class="edge">
<title>OrderModalComponent&#45;&gt;AppModule</title>
<path fill="none" stroke="#000000" d="M1779,-122.2222C1779,-140.8285 1779,-167 1779,-167 1779,-167 1259.0605,-167 1259.0605,-167"/>
<polygon fill="#000000" stroke="#000000" points="1259.0606,-163.5001 1249.0605,-167 1259.0605,-170.5001 1259.0606,-163.5001"/>
</g>
<!-- ToastComponent -->
<g id="node6" class="node">
<title>ToastComponent</title>
<polygon fill="#ffffb3" stroke="#000000" points="1686.4356,-122 1573.5644,-122 1573.5644,-86 1686.4356,-86 1686.4356,-122"/>
<text text-anchor="middle" x="1630" y="-99.8" font-family="Times,serif" font-size="14.00" fill="#000000">ToastComponent</text>
</g>
<!-- ToastComponent&#45;&gt;AppModule -->
<g id="edge6" class="edge">
<title>ToastComponent&#45;&gt;AppModule</title>
<path fill="none" stroke="#000000" d="M1630,-122.0225C1630,-139.3734 1630,-163 1630,-163 1630,-163 1258.7165,-163 1258.7165,-163"/>
<polygon fill="#000000" stroke="#000000" points="1258.7166,-159.5001 1248.7165,-163 1258.7165,-166.5001 1258.7166,-159.5001"/>
</g>
<!-- UserModalComponent -->
<g id="node7" class="node">
<title>UserModalComponent</title>
<polygon fill="#ffffb3" stroke="#000000" points="1556.3089,-122 1411.6911,-122 1411.6911,-86 1556.3089,-86 1556.3089,-122"/>
<text text-anchor="middle" x="1484" y="-99.8" font-family="Times,serif" font-size="14.00" fill="#000000">UserModalComponent</text>
</g>
<!-- UserModalComponent&#45;&gt;AppModule -->
<g id="edge7" class="edge">
<title>UserModalComponent&#45;&gt;AppModule</title>
<path fill="none" stroke="#000000" d="M1484,-122.0091C1484,-138.0494 1484,-159 1484,-159 1484,-159 1258.7696,-159 1258.7696,-159"/>
<polygon fill="#000000" stroke="#000000" points="1258.7696,-155.5001 1248.7696,-159 1258.7696,-162.5001 1258.7696,-155.5001"/>
</g>
<!-- AppComponent  -->
<g id="node13" class="node">
<title>AppComponent </title>
<polygon fill="#80b1d3" stroke="#000000" points="1261.439,-252 1152.561,-252 1152.561,-216 1261.439,-216 1261.439,-252"/>
<text text-anchor="middle" x="1207" y="-229.8" font-family="Times,serif" font-size="14.00" fill="#000000">AppComponent </text>
</g>
<!-- AppModule&#45;&gt;AppComponent  -->
<g id="edge12" class="edge">
<title>AppModule&#45;&gt;AppComponent </title>
<path fill="none" stroke="#000000" stroke-dasharray="1,5" d="M1207,-187.1061C1207,-187.1061 1207,-205.991 1207,-205.991"/>
<polygon fill="#000000" stroke="#000000" points="1203.5001,-205.9909 1207,-215.991 1210.5001,-205.991 1203.5001,-205.9909"/>
</g>
<!-- AdminModule -->
<g id="node9" class="node">
<title>AdminModule</title>
<polygon fill="#8dd3c7" stroke="#000000" points="1388.4386,-122 1385.4386,-126 1364.4386,-126 1361.4386,-122 1289.5614,-122 1289.5614,-86 1388.4386,-86 1388.4386,-122"/>
<text text-anchor="middle" x="1339" y="-99.8" font-family="Times,serif" font-size="14.00" fill="#000000">AdminModule</text>
</g>
<!-- AdminModule&#45;&gt;AppModule -->
<g id="edge8" class="edge">
<title>AdminModule&#45;&gt;AppModule</title>
<path fill="none" stroke="#000000" d="M1339,-122.1243C1339,-136.7832 1339,-155 1339,-155 1339,-155 1258.7656,-155 1258.7656,-155"/>
<polygon fill="#000000" stroke="#000000" points="1258.7657,-151.5001 1248.7656,-155 1258.7656,-158.5001 1258.7657,-151.5001"/>
</g>
<!-- AppRoutingModule -->
<g id="node10" class="node">
<title>AppRoutingModule</title>
<polygon fill="#8dd3c7" stroke="#000000" points="1271.2744,-122 1268.2744,-126 1247.2744,-126 1244.2744,-122 1142.7256,-122 1142.7256,-86 1271.2744,-86 1271.2744,-122"/>
<text text-anchor="middle" x="1207" y="-99.8" font-family="Times,serif" font-size="14.00" fill="#000000">AppRoutingModule</text>
</g>
<!-- AppRoutingModule&#45;&gt;AppModule -->
<g id="edge9" class="edge">
<title>AppRoutingModule&#45;&gt;AppModule</title>
<path fill="none" stroke="#000000" d="M1207,-122.1061C1207,-122.1061 1207,-140.991 1207,-140.991"/>
<polygon fill="#000000" stroke="#000000" points="1203.5001,-140.9909 1207,-150.991 1210.5001,-140.991 1203.5001,-140.9909"/>
</g>
<!-- PagesModule -->
<g id="node11" class="node">
<title>PagesModule</title>
<polygon fill="#8dd3c7" stroke="#000000" points="1125.2064,-122 1122.2064,-126 1101.2064,-126 1098.2064,-122 1032.7936,-122 1032.7936,-86 1125.2064,-86 1125.2064,-122"/>
<text text-anchor="middle" x="1079" y="-99.8" font-family="Times,serif" font-size="14.00" fill="#000000">PagesModule</text>
</g>
<!-- PagesModule&#45;&gt;AppModule -->
<g id="edge10" class="edge">
<title>PagesModule&#45;&gt;AppModule</title>
<path fill="none" stroke="#000000" d="M1079,-122.1243C1079,-136.7832 1079,-155 1079,-155 1079,-155 1155.088,-155 1155.088,-155"/>
<polygon fill="#000000" stroke="#000000" points="1155.088,-158.5001 1165.088,-155 1155.088,-151.5001 1155.088,-158.5001"/>
</g>
<!-- UserModule -->
<g id="node12" class="node">
<title>UserModule</title>
<polygon fill="#8dd3c7" stroke="#000000" points="1014.9762,-122 1011.9762,-126 990.9762,-126 987.9762,-122 929.0238,-122 929.0238,-86 1014.9762,-86 1014.9762,-122"/>
<text text-anchor="middle" x="972" y="-99.8" font-family="Times,serif" font-size="14.00" fill="#000000">UserModule</text>
</g>
<!-- UserModule&#45;&gt;AppModule -->
<g id="edge11" class="edge">
<title>UserModule&#45;&gt;AppModule</title>
<path fill="none" stroke="#000000" d="M972,-122.0091C972,-138.0494 972,-159 972,-159 972,-159 1155.2575,-159 1155.2575,-159"/>
<polygon fill="#000000" stroke="#000000" points="1155.2575,-162.5001 1165.2575,-159 1155.2575,-155.5001 1155.2575,-162.5001"/>
</g>
<!-- CategoryService -->
<g id="node14" class="node">
<title>CategoryService</title>
<ellipse fill="#fdb462" stroke="#000000" cx="830" cy="-104" rx="75.279" ry="18"/>
<text text-anchor="middle" x="830" y="-99.8" font-family="Times,serif" font-size="14.00" fill="#000000">CategoryService</text>
</g>
<!-- CategoryService&#45;&gt;AppModule -->
<g id="edge13" class="edge">
<title>CategoryService&#45;&gt;AppModule</title>
<path fill="none" stroke="#000000" d="M830,-122.0225C830,-139.3734 830,-163 830,-163 830,-163 1155.214,-163 1155.214,-163"/>
<polygon fill="#000000" stroke="#000000" points="1155.214,-166.5001 1165.214,-163 1155.2139,-159.5001 1155.214,-166.5001"/>
</g>
<!-- OrderService -->
<g id="node15" class="node">
<title>OrderService</title>
<ellipse fill="#fdb462" stroke="#000000" cx="674" cy="-104" rx="62.516" ry="18"/>
<text text-anchor="middle" x="674" y="-99.8" font-family="Times,serif" font-size="14.00" fill="#000000">OrderService</text>
</g>
<!-- OrderService&#45;&gt;AppModule -->
<g id="edge14" class="edge">
<title>OrderService&#45;&gt;AppModule</title>
<path fill="none" stroke="#000000" d="M674,-122.2222C674,-140.8285 674,-167 674,-167 674,-167 1155.1764,-167 1155.1764,-167"/>
<polygon fill="#000000" stroke="#000000" points="1155.1764,-170.5001 1165.1764,-167 1155.1763,-163.5001 1155.1764,-170.5001"/>
</g>
<!-- ProductService -->
<g id="node16" class="node">
<title>ProductService</title>
<ellipse fill="#fdb462" stroke="#000000" cx="523" cy="-104" rx="70.0616" ry="18"/>
<text text-anchor="middle" x="523" y="-99.8" font-family="Times,serif" font-size="14.00" fill="#000000">ProductService</text>
</g>
<!-- ProductService&#45;&gt;AppModule -->
<g id="edge15" class="edge">
<title>ProductService&#45;&gt;AppModule</title>
<path fill="none" stroke="#000000" d="M523,-122.308C523,-142.1455 523,-171 523,-171 523,-171 1155.2424,-171 1155.2424,-171"/>
<polygon fill="#000000" stroke="#000000" points="1155.2424,-174.5001 1165.2424,-171 1155.2423,-167.5001 1155.2424,-174.5001"/>
</g>
<!-- ServicesService -->
<g id="node17" class="node">
<title>ServicesService</title>
<ellipse fill="#fdb462" stroke="#000000" cx="362" cy="-104" rx="72.9063" ry="18"/>
<text text-anchor="middle" x="362" y="-99.8" font-family="Times,serif" font-size="14.00" fill="#000000">ServicesService</text>
</g>
<!-- ServicesService&#45;&gt;AppModule -->
<g id="edge16" class="edge">
<title>ServicesService&#45;&gt;AppModule</title>
<path fill="none" stroke="#000000" d="M362,-122.2843C362,-143.3211 362,-175 362,-175 362,-175 1155.0963,-175 1155.0963,-175"/>
<polygon fill="#000000" stroke="#000000" points="1155.0964,-178.5001 1165.0963,-175 1155.0963,-171.5001 1155.0964,-178.5001"/>
</g>
<!-- ToastSerice -->
<g id="node18" class="node">
<title>ToastSerice</title>
<ellipse fill="#fdb462" stroke="#000000" cx="215" cy="-104" rx="56.7348" ry="18"/>
<text text-anchor="middle" x="215" y="-99.8" font-family="Times,serif" font-size="14.00" fill="#000000">ToastSerice</text>
</g>
<!-- ToastSerice&#45;&gt;AppModule -->
<g id="edge17" class="edge">
<title>ToastSerice&#45;&gt;AppModule</title>
<path fill="none" stroke="#000000" d="M215,-122.1554C215,-144.3519 215,-179 215,-179 215,-179 1155.3238,-179 1155.3238,-179"/>
<polygon fill="#000000" stroke="#000000" points="1155.3239,-182.5001 1165.3238,-179 1155.3238,-175.5001 1155.3239,-182.5001"/>
</g>
<!-- UserService -->
<g id="node19" class="node">
<title>UserService</title>
<ellipse fill="#fdb462" stroke="#000000" cx="82" cy="-104" rx="58.4415" ry="18"/>
<text text-anchor="middle" x="82" y="-99.8" font-family="Times,serif" font-size="14.00" fill="#000000">UserService</text>
</g>
<!-- UserService&#45;&gt;AppModule -->
<g id="edge18" class="edge">
<title>UserService&#45;&gt;AppModule</title>
<path fill="none" stroke="#000000" d="M82,-122.3228C82,-145.6602 82,-183 82,-183 82,-183 1155.2898,-183 1155.2898,-183"/>
<polygon fill="#000000" stroke="#000000" points="1155.2898,-186.5001 1165.2898,-183 1155.2898,-179.5001 1155.2898,-186.5001"/>
</g>
</g>
</svg>
