<?xml version="1.0" encoding="UTF-8" standalone="no"?>
<!DOCTYPE svg PUBLIC "-//W3C//DTD SVG 1.1//EN"
 "http://www.w3.org/Graphics/SVG/1.1/DTD/svg11.dtd">
<!-- Generated by graphviz version 2.40.1 (20161225.0304)
 -->
<!-- Title: dependencies Pages: 1 -->
<svg width="3660pt" height="360pt"
 viewBox="0.00 0.00 3660.00 360.00" xmlns="http://www.w3.org/2000/svg" xmlns:xlink="http://www.w3.org/1999/xlink">
<g id="graph0" class="graph" transform="scale(1 1) rotate(0) translate(4 356)">
<title>dependencies</title>
<polygon fill="#ffffff" stroke="transparent" points="-4,4 -4,-356 3656,-356 3656,4 -4,4"/>
<text text-anchor="start" x="1805.0091" y="-42.4" font-family="sans-serif" font-weight="bold" font-size="14.00" fill="#000000">Legend</text>
<polygon fill="#ffffb3" stroke="transparent" points="1592,-10 1592,-30 1612,-30 1612,-10 1592,-10"/>
<text text-anchor="start" x="1615.629" y="-15.4" font-family="sans-serif" font-size="14.00" fill="#000000"> &#160;Declarations</text>
<polygon fill="#8dd3c7" stroke="transparent" points="1705,-10 1705,-30 1725,-30 1725,-10 1705,-10"/>
<text text-anchor="start" x="1728.7251" y="-15.4" font-family="sans-serif" font-size="14.00" fill="#000000"> &#160;Module</text>
<polygon fill="#80b1d3" stroke="transparent" points="1791,-10 1791,-30 1811,-30 1811,-10 1791,-10"/>
<text text-anchor="start" x="1814.7812" y="-15.4" font-family="sans-serif" font-size="14.00" fill="#000000"> &#160;Bootstrap</text>
<polygon fill="#fdb462" stroke="transparent" points="1888,-10 1888,-30 1908,-30 1908,-10 1888,-10"/>
<text text-anchor="start" x="1911.6732" y="-15.4" font-family="sans-serif" font-size="14.00" fill="#000000"> &#160;Providers</text>
<polygon fill="#fb8072" stroke="transparent" points="1984,-10 1984,-30 2004,-30 2004,-10 1984,-10"/>
<text text-anchor="start" x="2007.7258" y="-15.4" font-family="sans-serif" font-size="14.00" fill="#000000"> &#160;Exports</text>
<g id="clust1" class="cluster">
<title>cluster_AdminModule</title>
<polygon fill="none" stroke="#000000" stroke-dasharray="1,5" points="8,-70 8,-206 1386,-206 1386,-70 8,-70"/>
</g>
<g id="clust2" class="cluster">
<title>cluster_AdminModule_declarations</title>
<polygon fill="none" stroke="#000000" points="184,-78 184,-130 1378,-130 1378,-78 184,-78"/>
</g>
<g id="clust10" class="cluster">
<title>cluster_AdminModule_imports</title>
<polygon fill="none" stroke="#000000" points="16,-78 16,-130 176,-130 176,-78 16,-78"/>
</g>
<g id="clust20" class="cluster">
<title>cluster_AppModule</title>
<polygon fill="none" stroke="#000000" stroke-dasharray="1,5" points="1394,-146 1394,-344 3644,-344 3644,-146 1394,-146"/>
</g>
<g id="clust21" class="cluster">
<title>cluster_AppModule_declarations</title>
<polygon fill="none" stroke="#000000" points="2673,-154 2673,-206 3636,-206 3636,-154 2673,-154"/>
</g>
<g id="clust29" class="cluster">
<title>cluster_AppModule_imports</title>
<polygon fill="none" stroke="#000000" points="2307,-154 2307,-206 2665,-206 2665,-154 2307,-154"/>
</g>
<g id="clust31" class="cluster">
<title>cluster_AppModule_bootstrap</title>
<polygon fill="none" stroke="#000000" points="2406,-284 2406,-336 2530,-336 2530,-284 2406,-284"/>
</g>
<g id="clust32" class="cluster">
<title>cluster_AppModule_providers</title>
<polygon fill="none" stroke="#000000" points="1402,-154 1402,-206 2299,-206 2299,-154 1402,-154"/>
</g>
<g id="clust39" class="cluster">
<title>cluster_PagesModule</title>
<polygon fill="none" stroke="#000000" stroke-dasharray="1,5" points="1439,-70 1439,-138 2794,-138 2794,-70 1439,-70"/>
</g>
<g id="clust40" class="cluster">
<title>cluster_PagesModule_declarations</title>
<polygon fill="none" stroke="#000000" points="1609,-78 1609,-130 2786,-130 2786,-78 1609,-78"/>
</g>
<g id="clust49" class="cluster">
<title>cluster_PagesModule_imports</title>
<polygon fill="none" stroke="#000000" points="1447,-78 1447,-130 1601,-130 1601,-78 1447,-78"/>
</g>
<g id="clust59" class="cluster">
<title>cluster_UserModule</title>
<polygon fill="none" stroke="#000000" stroke-dasharray="1,5" points="2802,-70 2802,-138 3266,-138 3266,-70 2802,-70"/>
</g>
<g id="clust60" class="cluster">
<title>cluster_UserModule_declarations</title>
<polygon fill="none" stroke="#000000" points="2966,-78 2966,-130 3258,-130 3258,-78 2966,-78"/>
</g>
<g id="clust63" class="cluster">
<title>cluster_UserModule_imports</title>
<polygon fill="none" stroke="#000000" points="2810,-78 2810,-130 2958,-130 2958,-78 2810,-78"/>
</g>
<!-- AddProductComponent -->
<g id="node1" class="node">
<title>AddProductComponent</title>
<polygon fill="#ffffb3" stroke="#000000" points="1370.4874,-122 1221.5126,-122 1221.5126,-86 1370.4874,-86 1370.4874,-122"/>
<text text-anchor="middle" x="1296" y="-99.8" font-family="Times,serif" font-size="14.00" fill="#000000">AddProductComponent</text>
</g>
<!-- AdminModule -->
<g id="node8" class="node">
<title>AdminModule</title>
<polygon fill="#8dd3c7" stroke="#000000" points="863.4386,-198 860.4386,-202 839.4386,-202 836.4386,-198 764.5614,-198 764.5614,-162 863.4386,-162 863.4386,-198"/>
<text text-anchor="middle" x="814" y="-175.8" font-family="Times,serif" font-size="14.00" fill="#000000">AdminModule</text>
</g>
<!-- AddProductComponent&#45;&gt;AdminModule -->
<g id="edge1" class="edge">
<title>AddProductComponent&#45;&gt;AdminModule</title>
<path fill="none" stroke="#000000" d="M1296,-122.0263C1296,-146.9773 1296,-189 1296,-189 1296,-189 873.3173,-189 873.3173,-189"/>
<polygon fill="#000000" stroke="#000000" points="873.3173,-185.5001 863.3173,-189 873.3173,-192.5001 873.3173,-185.5001"/>
</g>
<!-- AdminComponent -->
<g id="node2" class="node">
<title>AdminComponent</title>
<polygon fill="#ffffb3" stroke="#000000" points="1203.2204,-122 1082.7796,-122 1082.7796,-86 1203.2204,-86 1203.2204,-122"/>
<text text-anchor="middle" x="1143" y="-99.8" font-family="Times,serif" font-size="14.00" fill="#000000">AdminComponent</text>
</g>
<!-- AdminComponent&#45;&gt;AdminModule -->
<g id="edge2" class="edge">
<title>AdminComponent&#45;&gt;AdminModule</title>
<path fill="none" stroke="#000000" d="M1143,-122.0109C1143,-144.4852 1143,-180 1143,-180 1143,-180 873.2546,-180 873.2546,-180"/>
<polygon fill="#000000" stroke="#000000" points="873.2547,-176.5001 863.2546,-180 873.2546,-183.5001 873.2547,-176.5001"/>
</g>
<!-- AdminHomeComponent -->
<g id="node3" class="node">
<title>AdminHomeComponent</title>
<polygon fill="#ffffb3" stroke="#000000" points="1065.4326,-122 910.5674,-122 910.5674,-86 1065.4326,-86 1065.4326,-122"/>
<text text-anchor="middle" x="988" y="-99.8" font-family="Times,serif" font-size="14.00" fill="#000000">AdminHomeComponent</text>
</g>
<!-- AdminHomeComponent&#45;&gt;AdminModule -->
<g id="edge3" class="edge">
<title>AdminHomeComponent&#45;&gt;AdminModule</title>
<path fill="none" stroke="#000000" d="M988,-122.308C988,-142.1455 988,-171 988,-171 988,-171 873.396,-171 873.396,-171"/>
<polygon fill="#000000" stroke="#000000" points="873.396,-167.5001 863.396,-171 873.396,-174.5001 873.396,-167.5001"/>
</g>
<!-- AdminOrdersComponent -->
<g id="node4" class="node">
<title>AdminOrdersComponent</title>
<polygon fill="#ffffb3" stroke="#000000" points="893.3075,-122 734.6925,-122 734.6925,-86 893.3075,-86 893.3075,-122"/>
<text text-anchor="middle" x="814" y="-99.8" font-family="Times,serif" font-size="14.00" fill="#000000">AdminOrdersComponent</text>
</g>
<!-- AdminOrdersComponent&#45;&gt;AdminModule -->
<g id="edge4" class="edge">
<title>AdminOrdersComponent&#45;&gt;AdminModule</title>
<path fill="none" stroke="#000000" d="M814,-122.0109C814,-122.0109 814,-151.855 814,-151.855"/>
<polygon fill="#000000" stroke="#000000" points="810.5001,-151.8549 814,-161.855 817.5001,-151.855 810.5001,-151.8549"/>
</g>
<!-- AdminProductsComponent -->
<g id="node5" class="node">
<title>AdminProductsComponent</title>
<polygon fill="#ffffb3" stroke="#000000" points="716.7133,-122 547.2867,-122 547.2867,-86 716.7133,-86 716.7133,-122"/>
<text text-anchor="middle" x="632" y="-99.8" font-family="Times,serif" font-size="14.00" fill="#000000">AdminProductsComponent</text>
</g>
<!-- AdminProductsComponent&#45;&gt;AdminModule -->
<g id="edge5" class="edge">
<title>AdminProductsComponent&#45;&gt;AdminModule</title>
<path fill="none" stroke="#000000" d="M632,-122.0348C632,-141.5762 632,-170 632,-170 632,-170 754.7482,-170 754.7482,-170"/>
<polygon fill="#000000" stroke="#000000" points="754.7482,-173.5001 764.7482,-170 754.7481,-166.5001 754.7482,-173.5001"/>
</g>
<!-- AdminServicesComponent -->
<g id="node6" class="node">
<title>AdminServicesComponent</title>
<polygon fill="#ffffb3" stroke="#000000" points="529.6428,-122 362.3572,-122 362.3572,-86 529.6428,-86 529.6428,-122"/>
<text text-anchor="middle" x="446" y="-99.8" font-family="Times,serif" font-size="14.00" fill="#000000">AdminServicesComponent</text>
</g>
<!-- AdminServicesComponent&#45;&gt;AdminModule -->
<g id="edge6" class="edge">
<title>AdminServicesComponent&#45;&gt;AdminModule</title>
<path fill="none" stroke="#000000" d="M446,-122.0449C446,-143.6623 446,-177 446,-177 446,-177 754.7517,-177 754.7517,-177"/>
<polygon fill="#000000" stroke="#000000" points="754.7518,-180.5001 764.7517,-177 754.7517,-173.5001 754.7518,-180.5001"/>
</g>
<!-- AdminUsersComponent -->
<g id="node7" class="node">
<title>AdminUsersComponent</title>
<polygon fill="#ffffb3" stroke="#000000" points="344.0912,-122 191.9088,-122 191.9088,-86 344.0912,-86 344.0912,-122"/>
<text text-anchor="middle" x="268" y="-99.8" font-family="Times,serif" font-size="14.00" fill="#000000">AdminUsersComponent</text>
</g>
<!-- AdminUsersComponent&#45;&gt;AdminModule -->
<g id="edge7" class="edge">
<title>AdminUsersComponent&#45;&gt;AdminModule</title>
<path fill="none" stroke="#000000" d="M268,-122.1532C268,-145.7566 268,-184 268,-184 268,-184 754.5832,-184 754.5832,-184"/>
<polygon fill="#000000" stroke="#000000" points="754.5832,-187.5001 764.5832,-184 754.5831,-180.5001 754.5832,-187.5001"/>
</g>
<!-- AppModule -->
<g id="node17" class="node">
<title>AppModule</title>
<polygon fill="#8dd3c7" stroke="#000000" points="2509.6571,-263 2506.6571,-267 2485.6571,-267 2482.6571,-263 2426.3429,-263 2426.3429,-227 2509.6571,-227 2509.6571,-263"/>
<text text-anchor="middle" x="2468" y="-240.8" font-family="Times,serif" font-size="14.00" fill="#000000">AppModule</text>
</g>
<!-- AdminModule&#45;&gt;AppModule -->
<g id="edge16" class="edge">
<title>AdminModule&#45;&gt;AppModule</title>
<path fill="none" stroke="#000000" d="M814,-198.3228C814,-221.6602 814,-259 814,-259 814,-259 2416.2871,-259 2416.2871,-259"/>
<polygon fill="#000000" stroke="#000000" points="2416.2872,-262.5001 2426.2871,-259 2416.2871,-255.5001 2416.2872,-262.5001"/>
</g>
<!-- AdminRoutingModule -->
<g id="node9" class="node">
<title>AdminRoutingModule</title>
<polygon fill="#8dd3c7" stroke="#000000" points="167.5561,-122 164.5561,-126 143.5561,-126 140.5561,-122 24.4439,-122 24.4439,-86 167.5561,-86 167.5561,-122"/>
<text text-anchor="middle" x="96" y="-99.8" font-family="Times,serif" font-size="14.00" fill="#000000">AdminRoutingModule</text>
</g>
<!-- AdminRoutingModule&#45;&gt;AdminModule -->
<g id="edge8" class="edge">
<title>AdminRoutingModule&#45;&gt;AdminModule</title>
<path fill="none" stroke="#000000" d="M96,-122.0265C96,-147.5093 96,-191 96,-191 96,-191 754.649,-191 754.649,-191"/>
<polygon fill="#000000" stroke="#000000" points="754.649,-194.5001 764.649,-191 754.6489,-187.5001 754.649,-194.5001"/>
</g>
<!-- AppComponent -->
<g id="node10" class="node">
<title>AppComponent</title>
<polygon fill="#ffffb3" stroke="#000000" points="3627.9399,-198 3522.0601,-198 3522.0601,-162 3627.9399,-162 3627.9399,-198"/>
<text text-anchor="middle" x="3575" y="-175.8" font-family="Times,serif" font-size="14.00" fill="#000000">AppComponent</text>
</g>
<!-- AppComponent&#45;&gt;AppModule -->
<g id="edge9" class="edge">
<title>AppComponent&#45;&gt;AppModule</title>
<path fill="none" stroke="#000000" d="M3575,-198.3228C3575,-221.6602 3575,-259 3575,-259 3575,-259 2519.709,-259 2519.709,-259"/>
<polygon fill="#000000" stroke="#000000" points="2519.7091,-255.5001 2509.709,-259 2519.709,-262.5001 2519.7091,-255.5001"/>
</g>
<!-- FilterPipe -->
<g id="node11" class="node">
<title>FilterPipe</title>
<polygon fill="#ffffb3" stroke="#000000" points="3504.7177,-198 3433.2823,-198 3433.2823,-162 3504.7177,-162 3504.7177,-198"/>
<text text-anchor="middle" x="3469" y="-175.8" font-family="Times,serif" font-size="14.00" fill="#000000">FilterPipe</text>
</g>
<!-- FilterPipe&#45;&gt;AppModule -->
<g id="edge10" class="edge">
<title>FilterPipe&#45;&gt;AppModule</title>
<path fill="none" stroke="#000000" d="M3469,-198.1554C3469,-220.3519 3469,-255 3469,-255 3469,-255 2519.7373,-255 2519.7373,-255"/>
<polygon fill="#000000" stroke="#000000" points="2519.7373,-251.5001 2509.7373,-255 2519.7373,-258.5001 2519.7373,-251.5001"/>
</g>
<!-- IconModalComponent -->
<g id="node12" class="node">
<title>IconModalComponent</title>
<polygon fill="#ffffb3" stroke="#000000" points="3415.2576,-198 3272.7424,-198 3272.7424,-162 3415.2576,-162 3415.2576,-198"/>
<text text-anchor="middle" x="3344" y="-175.8" font-family="Times,serif" font-size="14.00" fill="#000000">IconModalComponent</text>
</g>
<!-- IconModalComponent&#45;&gt;AppModule -->
<g id="edge11" class="edge">
<title>IconModalComponent&#45;&gt;AppModule</title>
<path fill="none" stroke="#000000" d="M3344,-198.2843C3344,-219.3211 3344,-251 3344,-251 3344,-251 2519.662,-251 2519.662,-251"/>
<polygon fill="#000000" stroke="#000000" points="2519.662,-247.5001 2509.662,-251 2519.6619,-254.5001 2519.662,-247.5001"/>
</g>
<!-- MenuComponent -->
<g id="node13" class="node">
<title>MenuComponent</title>
<polygon fill="#ffffb3" stroke="#000000" points="3254.9916,-198 3141.0084,-198 3141.0084,-162 3254.9916,-162 3254.9916,-198"/>
<text text-anchor="middle" x="3198" y="-175.8" font-family="Times,serif" font-size="14.00" fill="#000000">MenuComponent</text>
</g>
<!-- MenuComponent&#45;&gt;AppModule -->
<g id="edge12" class="edge">
<title>MenuComponent&#45;&gt;AppModule</title>
<path fill="none" stroke="#000000" d="M3198,-198.308C3198,-218.1455 3198,-247 3198,-247 3198,-247 2519.8699,-247 2519.8699,-247"/>
<polygon fill="#000000" stroke="#000000" points="2519.8699,-243.5001 2509.8699,-247 2519.8699,-250.5001 2519.8699,-243.5001"/>
</g>
<!-- OrderModalComponent -->
<g id="node14" class="node">
<title>OrderModalComponent</title>
<polygon fill="#ffffb3" stroke="#000000" points="3123.0253,-198 2972.9747,-198 2972.9747,-162 3123.0253,-162 3123.0253,-198"/>
<text text-anchor="middle" x="3048" y="-175.8" font-family="Times,serif" font-size="14.00" fill="#000000">OrderModalComponent</text>
</g>
<!-- OrderModalComponent&#45;&gt;AppModule -->
<g id="edge13" class="edge">
<title>OrderModalComponent&#45;&gt;AppModule</title>
<path fill="none" stroke="#000000" d="M3048,-198.2222C3048,-216.8285 3048,-243 3048,-243 3048,-243 2519.7122,-243 2519.7122,-243"/>
<polygon fill="#000000" stroke="#000000" points="2519.7122,-239.5001 2509.7122,-243 2519.7121,-246.5001 2519.7122,-239.5001"/>
</g>
<!-- ToastComponent -->
<g id="node15" class="node">
<title>ToastComponent</title>
<polygon fill="#ffffb3" stroke="#000000" points="2955.4356,-198 2842.5644,-198 2842.5644,-162 2955.4356,-162 2955.4356,-198"/>
<text text-anchor="middle" x="2899" y="-175.8" font-family="Times,serif" font-size="14.00" fill="#000000">ToastComponent</text>
</g>
<!-- ToastComponent&#45;&gt;AppModule -->
<g id="edge14" class="edge">
<title>ToastComponent&#45;&gt;AppModule</title>
<path fill="none" stroke="#000000" d="M2899,-198.0225C2899,-215.3734 2899,-239 2899,-239 2899,-239 2519.7177,-239 2519.7177,-239"/>
<polygon fill="#000000" stroke="#000000" points="2519.7177,-235.5001 2509.7177,-239 2519.7177,-242.5001 2519.7177,-235.5001"/>
</g>
<!-- UserModalComponent -->
<g id="node16" class="node">
<title>UserModalComponent</title>
<polygon fill="#ffffb3" stroke="#000000" points="2825.3089,-198 2680.6911,-198 2680.6911,-162 2825.3089,-162 2825.3089,-198"/>
<text text-anchor="middle" x="2753" y="-175.8" font-family="Times,serif" font-size="14.00" fill="#000000">UserModalComponent</text>
</g>
<!-- UserModalComponent&#45;&gt;AppModule -->
<g id="edge15" class="edge">
<title>UserModalComponent&#45;&gt;AppModule</title>
<path fill="none" stroke="#000000" d="M2753,-198.0091C2753,-214.0494 2753,-235 2753,-235 2753,-235 2519.7467,-235 2519.7467,-235"/>
<polygon fill="#000000" stroke="#000000" points="2519.7467,-231.5001 2509.7467,-235 2519.7466,-238.5001 2519.7467,-231.5001"/>
</g>
<!-- AppComponent  -->
<g id="node21" class="node">
<title>AppComponent </title>
<polygon fill="#80b1d3" stroke="#000000" points="2522.439,-328 2413.561,-328 2413.561,-292 2522.439,-292 2522.439,-328"/>
<text text-anchor="middle" x="2468" y="-305.8" font-family="Times,serif" font-size="14.00" fill="#000000">AppComponent </text>
</g>
<!-- AppModule&#45;&gt;AppComponent  -->
<g id="edge20" class="edge">
<title>AppModule&#45;&gt;AppComponent </title>
<path fill="none" stroke="#000000" stroke-dasharray="1,5" d="M2468,-263.1061C2468,-263.1061 2468,-281.991 2468,-281.991"/>
<polygon fill="#000000" stroke="#000000" points="2464.5001,-281.9909 2468,-291.991 2471.5001,-281.991 2464.5001,-281.9909"/>
</g>
<!-- AppRoutingModule -->
<g id="node18" class="node">
<title>AppRoutingModule</title>
<polygon fill="#8dd3c7" stroke="#000000" points="2657.2744,-198 2654.2744,-202 2633.2744,-202 2630.2744,-198 2528.7256,-198 2528.7256,-162 2657.2744,-162 2657.2744,-198"/>
<text text-anchor="middle" x="2593" y="-175.8" font-family="Times,serif" font-size="14.00" fill="#000000">AppRoutingModule</text>
</g>
<!-- AppRoutingModule&#45;&gt;AppModule -->
<g id="edge17" class="edge">
<title>AppRoutingModule&#45;&gt;AppModule</title>
<path fill="none" stroke="#000000" d="M2593,-198.1243C2593,-212.7832 2593,-231 2593,-231 2593,-231 2519.9709,-231 2519.9709,-231"/>
<polygon fill="#000000" stroke="#000000" points="2519.971,-227.5001 2509.9709,-231 2519.9709,-234.5001 2519.971,-227.5001"/>
</g>
<!-- PagesModule -->
<g id="node19" class="node">
<title>PagesModule</title>
<polygon fill="#8dd3c7" stroke="#000000" points="2407.2064,-198 2404.2064,-202 2383.2064,-202 2380.2064,-198 2314.7936,-198 2314.7936,-162 2407.2064,-162 2407.2064,-198"/>
<text text-anchor="middle" x="2361" y="-175.8" font-family="Times,serif" font-size="14.00" fill="#000000">PagesModule</text>
</g>
<!-- PagesModule&#45;&gt;AppModule -->
<g id="edge18" class="edge">
<title>PagesModule&#45;&gt;AppModule</title>
<path fill="none" stroke="#000000" d="M2361,-198.1243C2361,-212.7832 2361,-231 2361,-231 2361,-231 2416.3246,-231 2416.3246,-231"/>
<polygon fill="#000000" stroke="#000000" points="2416.3247,-234.5001 2426.3246,-231 2416.3246,-227.5001 2416.3247,-234.5001"/>
</g>
<!-- UserModule -->
<g id="node20" class="node">
<title>UserModule</title>
<polygon fill="#8dd3c7" stroke="#000000" points="2510.9762,-198 2507.9762,-202 2486.9762,-202 2483.9762,-198 2425.0238,-198 2425.0238,-162 2510.9762,-162 2510.9762,-198"/>
<text text-anchor="middle" x="2468" y="-175.8" font-family="Times,serif" font-size="14.00" fill="#000000">UserModule</text>
</g>
<!-- UserModule&#45;&gt;AppModule -->
<g id="edge19" class="edge">
<title>UserModule&#45;&gt;AppModule</title>
<path fill="none" stroke="#000000" d="M2468,-198.1061C2468,-198.1061 2468,-216.991 2468,-216.991"/>
<polygon fill="#000000" stroke="#000000" points="2464.5001,-216.9909 2468,-226.991 2471.5001,-216.991 2464.5001,-216.9909"/>
</g>
<!-- CategoryService -->
<g id="node22" class="node">
<title>CategoryService</title>
<ellipse fill="#fdb462" stroke="#000000" cx="2216" cy="-180" rx="75.279" ry="18"/>
<text text-anchor="middle" x="2216" y="-175.8" font-family="Times,serif" font-size="14.00" fill="#000000">CategoryService</text>
</g>
<!-- CategoryService&#45;&gt;AppModule -->
<g id="edge21" class="edge">
<title>CategoryService&#45;&gt;AppModule</title>
<path fill="none" stroke="#000000" d="M2216,-198.0091C2216,-214.0494 2216,-235 2216,-235 2216,-235 2416.1044,-235 2416.1044,-235"/>
<polygon fill="#000000" stroke="#000000" points="2416.1045,-238.5001 2426.1044,-235 2416.1044,-231.5001 2416.1045,-238.5001"/>
</g>
<!-- OrderService -->
<g id="node23" class="node">
<title>OrderService</title>
<ellipse fill="#fdb462" stroke="#000000" cx="2060" cy="-180" rx="62.516" ry="18"/>
<text text-anchor="middle" x="2060" y="-175.8" font-family="Times,serif" font-size="14.00" fill="#000000">OrderService</text>
</g>
<!-- OrderService&#45;&gt;AppModule -->
<g id="edge22" class="edge">
<title>OrderService&#45;&gt;AppModule</title>
<path fill="none" stroke="#000000" d="M2060,-198.0225C2060,-215.3734 2060,-239 2060,-239 2060,-239 2416.2542,-239 2416.2542,-239"/>
<polygon fill="#000000" stroke="#000000" points="2416.2543,-242.5001 2426.2542,-239 2416.2542,-235.5001 2416.2543,-242.5001"/>
</g>
<!-- ProductService -->
<g id="node24" class="node">
<title>ProductService</title>
<ellipse fill="#fdb462" stroke="#000000" cx="1909" cy="-180" rx="70.0616" ry="18"/>
<text text-anchor="middle" x="1909" y="-175.8" font-family="Times,serif" font-size="14.00" fill="#000000">ProductService</text>
</g>
<!-- ProductService&#45;&gt;AppModule -->
<g id="edge23" class="edge">
<title>ProductService&#45;&gt;AppModule</title>
<path fill="none" stroke="#000000" d="M1909,-198.2222C1909,-216.8285 1909,-243 1909,-243 1909,-243 2415.9841,-243 2415.9841,-243"/>
<polygon fill="#000000" stroke="#000000" points="2415.9842,-246.5001 2425.9841,-243 2415.9841,-239.5001 2415.9842,-246.5001"/>
</g>
<!-- ServicesService -->
<g id="node25" class="node">
<title>ServicesService</title>
<ellipse fill="#fdb462" stroke="#000000" cx="1748" cy="-180" rx="72.9063" ry="18"/>
<text text-anchor="middle" x="1748" y="-175.8" font-family="Times,serif" font-size="14.00" fill="#000000">ServicesService</text>
</g>
<!-- ServicesService&#45;&gt;AppModule -->
<g id="edge24" class="edge">
<title>ServicesService&#45;&gt;AppModule</title>
<path fill="none" stroke="#000000" d="M1748,-198.308C1748,-218.1455 1748,-247 1748,-247 1748,-247 2416.1777,-247 2416.1777,-247"/>
<polygon fill="#000000" stroke="#000000" points="2416.1777,-250.5001 2426.1777,-247 2416.1776,-243.5001 2416.1777,-250.5001"/>
</g>
<!-- ToastSerice -->
<g id="node26" class="node">
<title>ToastSerice</title>
<ellipse fill="#fdb462" stroke="#000000" cx="1601" cy="-180" rx="56.7348" ry="18"/>
<text text-anchor="middle" x="1601" y="-175.8" font-family="Times,serif" font-size="14.00" fill="#000000">ToastSerice</text>
</g>
<!-- ToastSerice&#45;&gt;AppModule -->
<g id="edge25" class="edge">
<title>ToastSerice&#45;&gt;AppModule</title>
<path fill="none" stroke="#000000" d="M1601,-198.2843C1601,-219.3211 1601,-251 1601,-251 1601,-251 2416.1828,-251 2416.1828,-251"/>
<polygon fill="#000000" stroke="#000000" points="2416.1828,-254.5001 2426.1828,-251 2416.1828,-247.5001 2416.1828,-254.5001"/>
</g>
<!-- UserService -->
<g id="node27" class="node">
<title>UserService</title>
<ellipse fill="#fdb462" stroke="#000000" cx="1468" cy="-180" rx="58.4415" ry="18"/>
<text text-anchor="middle" x="1468" y="-175.8" font-family="Times,serif" font-size="14.00" fill="#000000">UserService</text>
</g>
<!-- UserService&#45;&gt;AppModule -->
<g id="edge26" class="edge">
<title>UserService&#45;&gt;AppModule</title>
<path fill="none" stroke="#000000" d="M1468,-198.1554C1468,-220.3519 1468,-255 1468,-255 1468,-255 2416.3044,-255 2416.3044,-255"/>
<polygon fill="#000000" stroke="#000000" points="2416.3044,-258.5001 2426.3044,-255 2416.3044,-251.5001 2416.3044,-258.5001"/>
</g>
<!-- AboutComponent -->
<g id="node28" class="node">
<title>AboutComponent</title>
<polygon fill="#ffffb3" stroke="#000000" points="2778.3301,-122 2661.6699,-122 2661.6699,-86 2778.3301,-86 2778.3301,-122"/>
<text text-anchor="middle" x="2720" y="-99.8" font-family="Times,serif" font-size="14.00" fill="#000000">AboutComponent</text>
</g>
<!-- AboutComponent&#45;&gt;PagesModule -->
<g id="edge27" class="edge">
<title>AboutComponent&#45;&gt;PagesModule</title>
<path fill="none" stroke="#000000" d="M2671.3404,-122.0579C2671.3404,-126.4945 2671.3404,-130 2671.3404,-130 2671.3404,-130 2402.8843,-130 2402.8843,-130 2402.8843,-130 2402.8843,-151.9489 2402.8843,-151.9489"/>
<polygon fill="#000000" stroke="#000000" points="2399.3844,-151.9488 2402.8843,-161.9489 2406.3844,-151.9489 2399.3844,-151.9488"/>
</g>
<!-- FilterProductsPipe -->
<g id="node29" class="node">
<title>FilterProductsPipe</title>
<polygon fill="#ffffb3" stroke="#000000" points="2644.2106,-122 2523.7894,-122 2523.7894,-86 2644.2106,-86 2644.2106,-122"/>
<text text-anchor="middle" x="2584" y="-99.8" font-family="Times,serif" font-size="14.00" fill="#000000">FilterProductsPipe</text>
</g>
<!-- FilterProductsPipe&#45;&gt;PagesModule -->
<g id="edge28" class="edge">
<title>FilterProductsPipe&#45;&gt;PagesModule</title>
<path fill="none" stroke="#000000" d="M2586.3591,-122.1679C2586.3591,-124.4478 2586.3591,-126 2586.3591,-126 2586.3591,-126 2398.6655,-126 2398.6655,-126 2398.6655,-126 2398.6655,-151.7181 2398.6655,-151.7181"/>
<polygon fill="#000000" stroke="#000000" points="2395.1656,-151.718 2398.6655,-161.7181 2402.1656,-151.7181 2395.1656,-151.718"/>
</g>
<!-- HomeComponent -->
<g id="node30" class="node">
<title>HomeComponent</title>
<polygon fill="#ffffb3" stroke="#000000" points="2505.5451,-122 2390.4549,-122 2390.4549,-86 2505.5451,-86 2505.5451,-122"/>
<text text-anchor="middle" x="2448" y="-99.8" font-family="Times,serif" font-size="14.00" fill="#000000">HomeComponent</text>
</g>
<!-- HomeComponent&#45;&gt;PagesModule -->
<g id="edge29" class="edge">
<title>HomeComponent&#45;&gt;PagesModule</title>
<path fill="none" stroke="#000000" d="M2394.4467,-122.0109C2394.4467,-122.0109 2394.4467,-151.855 2394.4467,-151.855"/>
<polygon fill="#000000" stroke="#000000" points="2390.9468,-151.8549 2394.4467,-161.855 2397.9468,-151.855 2390.9468,-151.8549"/>
</g>
<!-- LoginComponent -->
<g id="node31" class="node">
<title>LoginComponent</title>
<polygon fill="#ffffb3" stroke="#000000" points="2372.2758,-122 2257.7242,-122 2257.7242,-86 2372.2758,-86 2372.2758,-122"/>
<text text-anchor="middle" x="2315" y="-99.8" font-family="Times,serif" font-size="14.00" fill="#000000">LoginComponent</text>
</g>
<!-- LoginComponent&#45;&gt;PagesModule -->
<g id="edge30" class="edge">
<title>LoginComponent&#45;&gt;PagesModule</title>
<path fill="none" stroke="#000000" d="M2364.1748,-122.0109C2364.1748,-122.0109 2364.1748,-151.855 2364.1748,-151.855"/>
<polygon fill="#000000" stroke="#000000" points="2360.6749,-151.8549 2364.1748,-161.855 2367.6749,-151.855 2360.6749,-151.8549"/>
</g>
<!-- OurServicesComponent -->
<g id="node32" class="node">
<title>OurServicesComponent</title>
<polygon fill="#ffffb3" stroke="#000000" points="2239.0226,-122 2088.9774,-122 2088.9774,-86 2239.0226,-86 2239.0226,-122"/>
<text text-anchor="middle" x="2164" y="-99.8" font-family="Times,serif" font-size="14.00" fill="#000000">OurServicesComponent</text>
</g>
<!-- OurServicesComponent&#45;&gt;PagesModule -->
<g id="edge31" class="edge">
<title>OurServicesComponent&#45;&gt;PagesModule</title>
<path fill="none" stroke="#000000" d="M2189.9357,-122.1274C2189.9357,-132.7109 2189.9357,-144 2189.9357,-144 2189.9357,-144 2355.9618,-144 2355.9618,-144 2355.9618,-144 2355.9618,-151.5782 2355.9618,-151.5782"/>
<polygon fill="#000000" stroke="#000000" points="2352.4619,-151.5781 2355.9618,-161.5782 2359.4619,-151.5782 2352.4619,-151.5781"/>
</g>
<!-- ProductsComponent -->
<g id="node33" class="node">
<title>ProductsComponent</title>
<polygon fill="#ffffb3" stroke="#000000" points="2071.3258,-122 1940.6742,-122 1940.6742,-86 2071.3258,-86 2071.3258,-122"/>
<text text-anchor="middle" x="2006" y="-99.8" font-family="Times,serif" font-size="14.00" fill="#000000">ProductsComponent</text>
</g>
<!-- ProductsComponent&#45;&gt;PagesModule -->
<g id="edge32" class="edge">
<title>ProductsComponent&#45;&gt;PagesModule</title>
<path fill="none" stroke="#000000" d="M2034.3273,-122.1505C2034.3273,-134.2708 2034.3273,-148 2034.3273,-148 2034.3273,-148 2347.7488,-148 2347.7488,-148 2347.7488,-148 2347.7488,-151.7566 2347.7488,-151.7566"/>
<polygon fill="#000000" stroke="#000000" points="2344.2489,-151.7566 2347.7488,-161.7566 2351.2489,-151.7566 2344.2489,-151.7566"/>
</g>
<!-- RegisterComponent -->
<g id="node34" class="node">
<title>RegisterComponent</title>
<polygon fill="#ffffb3" stroke="#000000" points="1922.9846,-122 1795.0154,-122 1795.0154,-86 1922.9846,-86 1922.9846,-122"/>
<text text-anchor="middle" x="1859" y="-99.8" font-family="Times,serif" font-size="14.00" fill="#000000">RegisterComponent</text>
</g>
<!-- RegisterComponent&#45;&gt;PagesModule -->
<g id="edge33" class="edge">
<title>RegisterComponent&#45;&gt;PagesModule</title>
<path fill="none" stroke="#000000" d="M1880.9808,-122.1467C1880.9808,-135.7395 1880.9808,-152 1880.9808,-152 1880.9808,-152 2339.5359,-152 2339.5359,-152 2339.5359,-152 2339.5359,-152.9793 2339.5359,-152.9793"/>
<polygon fill="#000000" stroke="#000000" points="2336.036,-151.793 2339.5359,-161.793 2343.036,-151.7931 2336.036,-151.793"/>
</g>
<!-- SingleProductComponent -->
<g id="node35" class="node">
<title>SingleProductComponent</title>
<polygon fill="#ffffb3" stroke="#000000" points="1777.1596,-122 1616.8404,-122 1616.8404,-86 1777.1596,-86 1777.1596,-122"/>
<text text-anchor="middle" x="1697" y="-99.8" font-family="Times,serif" font-size="14.00" fill="#000000">SingleProductComponent</text>
</g>
<!-- SingleProductComponent&#45;&gt;PagesModule -->
<g id="edge34" class="edge">
<title>SingleProductComponent&#45;&gt;PagesModule</title>
<path fill="none" stroke="#000000" d="M1726.3134,-122.1243C1726.3134,-136.7832 1726.3134,-155 1726.3134,-155 1726.3134,-155 2331.3229,-155 2331.3229,-155 2331.3229,-155 2331.3229,-155.6831 2331.3229,-155.6831"/>
<polygon fill="#000000" stroke="#000000" points="2327.823,-151.8313 2331.3229,-161.8314 2334.823,-151.8314 2327.823,-151.8313"/>
</g>
<!-- PagesRoutingModule -->
<g id="node36" class="node">
<title>PagesRoutingModule</title>
<polygon fill="#8dd3c7" stroke="#000000" points="1592.8244,-122 1589.8244,-126 1568.8244,-126 1565.8244,-122 1455.1756,-122 1455.1756,-86 1592.8244,-86 1592.8244,-122"/>
<text text-anchor="middle" x="1524" y="-99.8" font-family="Times,serif" font-size="14.00" fill="#000000">PagesRoutingModule</text>
</g>
<!-- PagesRoutingModule&#45;&gt;PagesModule -->
<g id="edge35" class="edge">
<title>PagesRoutingModule&#45;&gt;PagesModule</title>
<path fill="none" stroke="#000000" d="M1568.5224,-122.0091C1568.5224,-138.0494 1568.5224,-159 1568.5224,-159 1568.5224,-159 2323.1099,-159 2323.1099,-159 2323.1099,-159 2323.1099,-159.292 2323.1099,-159.292"/>
<polygon fill="#000000" stroke="#000000" points="2319.6103,-151.9198 2323.1099,-161.92 2326.6103,-151.9201 2319.6103,-151.9198"/>
</g>
<!-- MyProductsComponent -->
<g id="node37" class="node">
<title>MyProductsComponent</title>
<polygon fill="#ffffb3" stroke="#000000" points="3249.7702,-122 3100.2298,-122 3100.2298,-86 3249.7702,-86 3249.7702,-122"/>
<text text-anchor="middle" x="3175" y="-99.8" font-family="Times,serif" font-size="14.00" fill="#000000">MyProductsComponent</text>
</g>
<!-- MyProductsComponent&#45;&gt;UserModule -->
<g id="edge36" class="edge">
<title>MyProductsComponent&#45;&gt;UserModule</title>
<path fill="none" stroke="#000000" d="M3111.6887,-122.0664C3111.6887,-131.4587 3111.6887,-141 3111.6887,-141 3111.6887,-141 2485.5821,-141 2485.5821,-141 2485.5821,-141 2485.5821,-151.8701 2485.5821,-151.8701"/>
<polygon fill="#000000" stroke="#000000" points="2482.0821,-151.8701 2485.5821,-161.8701 2489.0821,-151.8701 2482.0821,-151.8701"/>
</g>
<!-- UserComponent -->
<g id="node38" class="node">
<title>UserComponent</title>
<polygon fill="#ffffb3" stroke="#000000" points="3081.7591,-122 2974.2409,-122 2974.2409,-86 3081.7591,-86 3081.7591,-122"/>
<text text-anchor="middle" x="3028" y="-99.8" font-family="Times,serif" font-size="14.00" fill="#000000">UserComponent</text>
</g>
<!-- UserComponent&#45;&gt;UserModule -->
<g id="edge37" class="edge">
<title>UserComponent&#45;&gt;UserModule</title>
<path fill="none" stroke="#000000" d="M3028,-122.0449C3028,-129.749 3028,-137 3028,-137 3028,-137 2465.392,-137 2465.392,-137 2465.392,-137 2465.392,-151.5146 2465.392,-151.5146"/>
<polygon fill="#000000" stroke="#000000" points="2461.8921,-151.5145 2465.392,-161.5146 2468.8921,-151.5146 2461.8921,-151.5145"/>
</g>
<!-- UserRoutingModule -->
<g id="node39" class="node">
<title>UserRoutingModule</title>
<polygon fill="#8dd3c7" stroke="#000000" points="2949.594,-122 2946.594,-126 2925.594,-126 2922.594,-122 2818.406,-122 2818.406,-86 2949.594,-86 2949.594,-122"/>
<text text-anchor="middle" x="2884" y="-99.8" font-family="Times,serif" font-size="14.00" fill="#000000">UserRoutingModule</text>
</g>
<!-- UserRoutingModule&#45;&gt;UserModule -->
<g id="edge38" class="edge">
<title>UserRoutingModule&#45;&gt;UserModule</title>
<path fill="none" stroke="#000000" d="M2833.9685,-122.2015C2833.9685,-128.028 2833.9685,-133 2833.9685,-133 2833.9685,-133 2445.202,-133 2445.202,-133 2445.202,-133 2445.202,-151.963 2445.202,-151.963"/>
<polygon fill="#000000" stroke="#000000" points="2441.702,-151.963 2445.202,-161.963 2448.702,-151.963 2441.702,-151.963"/>
</g>
</g>
</svg>
